0
SECTION
2
HEADER
9
$INSUNITS
70
4
0
ENDSEC
0
SECTION
2
TABLES
0
TABLE
2
LTYPE
0
LTYPE
72
65
70
64
2
CONTINUOUS
3
______
73
0
40
0
0
ENDTAB
0
TABLE
2
LAYER
0
ENDTAB
0
ENDSEC
0
SECTION
2
ENTITIES
0
LINE
8
0
10
142.875
20
-159.925
11
142.875
21
-106.775
0
LINE
8
0
10
144.875
20
-104.775
11
236.125
21
-104.775
0
LINE
8
0
10
238.125
20
-106.775
11
238.125
21
-159.925
0
LINE
8
0
10
240.125
20
-161.925
11
255.175
21
-161.925
0
LINE
8
0
10
257.175
20
-163.925
11
257.175
21
-186.11875
0
LINE
8
0
10
255.175
20
-188.11875
11
199.64375
21
-188.11875
0
LINE
8
0
10
197.64375
20
-186.11875
11
197.64375
21
-163.925
0
LINE
8
0
10
195.64375
20
-161.925
11
144.875
21
-161.925
0
ARC
8
0
10
144.875
20
-106.775
40
2
50
90
51
180
0
ARC
8
0
10
236.125
20
-106.775
40
2
50
0
51
90
0
ARC
8
0
10
240.125
20
-159.925
40
2
50
180
51
270
0
ARC
8
0
10
255.175
20
-163.925
40
2
50
0
51
90
0
ARC
8
0
10
255.175
20
-186.11875
40
2
50
270
51
0
0
ARC
8
0
10
199.64375
20
-186.11875
40
2
50
180
51
270
0
ARC
8
0
10
195.64375
20
-163.925
40
2
50
0
51
90
0
ARC
8
0
10
144.875
20
-159.925
40
2
50
180
51
270
0
LINE
8
0
10
145.4
20
-159.4
11
159.4
21
-159.4
0
LINE
8
0
10
159.4
20
-159.4
11
159.4
21
-145.4
0
LINE
8
0
10
159.4
20
-145.4
11
145.4
21
-145.4
0
LINE
8
0
10
145.4
20
-145.4
11
145.4
21
-159.4
0
LINE
8
0
10
145.4
20
-140.35
11
159.4
21
-140.35
0
LINE
8
0
10
159.4
20
-140.35
11
159.4
21
-126.35
0
LINE
8
0
10
159.4
20
-126.35
11
145.4
21
-126.35
0
LINE
8
0
10
145.4
20
-126.35
11
145.4
21
-140.35
0
LINE
8
0
10
145.4
20
-121.3
11
159.4
21
-121.3
0
LINE
8
0
10
159.4
20
-121.3
11
159.4
21
-107.3
0
LINE
8
0
10
159.4
20
-107.3
11
145.4
21
-107.3
0
LINE
8
0
10
145.4
20
-107.3
11
145.4
21
-121.3
0
LINE
8
0
10
164.45
20
-159.4
11
178.45
21
-159.4
0
LINE
8
0
10
178.45
20
-159.4
11
178.45
21
-145.4
0
LINE
8
0
10
178.45
20
-145.4
11
164.45
21
-145.4
0
LINE
8
0
10
164.45
20
-145.4
11
164.45
21
-159.4
0
LINE
8
0
10
164.45
20
-140.35
11
178.45
21
-140.35
0
LINE
8
0
10
178.45
20
-140.35
11
178.45
21
-126.35
0
LINE
8
0
10
178.45
20
-126.35
11
164.45
21
-126.35
0
LINE
8
0
10
164.45
20
-126.35
11
164.45
21
-140.35
0
LINE
8
0
10
164.45
20
-121.3
11
178.45
21
-121.3
0
LINE
8
0
10
178.45
20
-121.3
11
178.45
21
-107.3
0
LINE
8
0
10
178.45
20
-107.3
11
164.45
21
-107.3
0
LINE
8
0
10
164.45
20
-107.3
11
164.45
21
-121.3
0
LINE
8
0
10
183.5
20
-159.4
11
197.5
21
-159.4
0
LINE
8
0
10
197.5
20
-159.4
11
197.5
21
-145.4
0
LINE
8
0
10
197.5
20
-145.4
11
183.5
21
-145.4
0
LINE
8
0
10
183.5
20
-145.4
11
183.5
21
-159.4
0
LINE
8
0
10
183.5
20
-140.35
11
197.5
21
-140.35
0
LINE
8
0
10
197.5
20
-140.35
11
197.5
21
-126.35
0
LINE
8
0
10
197.5
20
-126.35
11
183.5
21
-126.35
0
LINE
8
0
10
183.5
20
-126.35
11
183.5
21
-140.35
0
LINE
8
0
10
183.5
20
-121.3
11
197.5
21
-121.3
0
LINE
8
0
10
197.5
20
-121.3
11
197.5
21
-107.3
0
LINE
8
0
10
197.5
20
-107.3
11
183.5
21
-107.3
0
LINE
8
0
10
183.5
20
-107.3
11
183.5
21
-121.3
0
LINE
8
0
10
202.55
20
-159.4
11
216.55
21
-159.4
0
LINE
8
0
10
216.55
20
-159.4
11
216.55
21
-145.4
0
LINE
8
0
10
216.55
20
-145.4
11
202.55
21
-145.4
0
LINE
8
0
10
202.55
20
-145.4
11
202.55
21
-159.4
0
LINE
8
0
10
202.55
20
-140.35
11
216.55
21
-140.35
0
LINE
8
0
10
216.55
20
-140.35
11
216.55
21
-126.35
0
LINE
8
0
10
216.55
20
-126.35
11
202.55
21
-126.35
0
LINE
8
0
10
202.55
20
-126.35
11
202.55
21
-140.35
0
LINE
8
0
10
202.55
20
-121.3
11
216.55
21
-121.3
0
LINE
8
0
10
216.55
20
-121.3
11
216.55
21
-107.3
0
LINE
8
0
10
216.55
20
-107.3
11
202.55
21
-107.3
0
LINE
8
0
10
202.55
20
-107.3
11
202.55
21
-121.3
0
LINE
8
0
10
221.6
20
-159.4
11
235.6
21
-159.4
0
LINE
8
0
10
235.6
20
-159.4
11
235.6
21
-145.4
0
LINE
8
0
10
235.6
20
-145.4
11
221.6
21
-145.4
0
LINE
8
0
10
221.6
20
-145.4
11
221.6
21
-159.4
0
LINE
8
0
10
221.6
20
-140.35
11
235.6
21
-140.35
0
LINE
8
0
10
235.6
20
-140.35
11
235.6
21
-126.35
0
LINE
8
0
10
235.6
20
-126.35
11
221.6
21
-126.35
0
LINE
8
0
10
221.6
20
-126.35
11
221.6
21
-140.35
0
LINE
8
0
10
221.6
20
-121.3
11
235.6
21
-121.3
0
LINE
8
0
10
235.6
20
-121.3
11
235.6
21
-107.3
0
LINE
8
0
10
235.6
20
-107.3
11
221.6
21
-107.3
0
LINE
8
0
10
221.6
20
-107.3
11
221.6
21
-121.3
0
LINE
8
0
10
202.55
20
-183.2125
11
216.55
21
-183.2125
0
LINE
8
0
10
216.55
20
-183.2125
11
216.55
21
-169.2125
0
LINE
8
0
10
216.55
20
-169.2125
11
202.55
21
-169.2125
0
LINE
8
0
10
202.55
20
-169.2125
11
202.55
21
-183.2125
0
LINE
8
0
10
221.6
20
-183.2125
11
235.6
21
-183.2125
0
LINE
8
0
10
235.6
20
-183.2125
11
235.6
21
-169.2125
0
LINE
8
0
10
235.6
20
-169.2125
11
221.6
21
-169.2125
0
LINE
8
0
10
221.6
20
-169.2125
11
221.6
21
-183.2125
0
LINE
8
0
10
240.65
20
-185.59375
11
254.65
21
-185.59375
0
LINE
8
0
10
254.65
20
-185.59375
11
254.65
21
-171.59375
0
LINE
8
0
10
254.65
20
-171.59375
11
240.65
21
-171.59375
0
LINE
8
0
10
240.65
20
-171.59375
11
240.65
21
-185.59375
0
ENDSEC
0
EOF